<svg width="187" height="38" viewBox="0 0 187 38" fill="none" xmlns="http://www.w3.org/2000/svg">
<path d="M9.07732 34.2834L11.6096 23.3361L3.1167 15.973L14.3367 14.999L18.7 4.67505L23.0634 14.999L34.2834 15.973L25.7904 23.3361L28.3227 34.2834L18.7 28.4786L9.07732 34.2834Z" fill="#FFC107"/>
<path d="M121.278 34.2834L123.81 23.3361L115.317 15.973L126.537 14.999L130.9 4.67505L135.264 14.999L146.484 15.973L137.991 23.3361L140.523 34.2834L130.9 28.4786L121.278 34.2834Z" fill="#FFC107"/>
<path d="M158.677 34.2834L161.21 23.3361L152.717 15.973L163.937 14.999L168.3 4.67505L172.663 14.999L183.883 15.973L175.391 23.3361L177.923 34.2834L168.3 28.4786L158.677 34.2834Z" fill="#FFC107"/>
<path d="M83.8771 34.2834L86.4094 23.3361L77.9165 15.973L89.1365 14.999L93.4998 4.67505L97.8632 14.999L109.083 15.973L100.59 23.3361L103.123 34.2834L93.4998 28.4786L83.8771 34.2834Z" fill="#FFC107"/>
<path d="M46.4772 34.2834L49.0095 23.3361L40.5166 15.973L51.7366 14.999L56.0999 4.67505L60.4633 14.999L71.6833 15.973L63.1904 23.3361L65.7226 34.2834L56.0999 28.4786L46.4772 34.2834Z" fill="#FFC107"/>
</svg>
