<svg width="32" height="32" viewBox="0 0 32 32" fill="none" xmlns="http://www.w3.org/2000/svg">
<g clip-path="url(#clip0_2485_151)">
<path d="M23.3334 8.66663H23.3467M9.33341 2.66663H22.6667C26.3486 2.66663 29.3334 5.65139 29.3334 9.33329V22.6666C29.3334 26.3485 26.3486 29.3333 22.6667 29.3333H9.33341C5.65152 29.3333 2.66675 26.3485 2.66675 22.6666V9.33329C2.66675 5.65139 5.65152 2.66663 9.33341 2.66663ZM21.3334 15.16C21.498 16.2696 21.3084 17.4029 20.7918 18.3986C20.2751 19.3944 19.4576 20.2018 18.4556 20.7062C17.4536 21.2105 16.318 21.3861 15.2105 21.2079C14.1029 21.0297 13.0798 20.5067 12.2865 19.7135C11.4933 18.9203 10.9704 17.8971 10.7922 16.7896C10.614 15.682 10.7895 14.5465 11.2939 13.5445C11.7982 12.5424 12.6057 11.7249 13.6014 11.2083C14.5971 10.6916 15.7304 10.5021 16.8401 10.6666C17.972 10.8345 19.0199 11.3619 19.829 12.171C20.6381 12.9802 21.1656 14.0281 21.3334 15.16Z" stroke="#F57F2A" stroke-width="4" stroke-linecap="round" stroke-linejoin="round"/>
</g>
<defs>
<clipPath id="clip0_2485_151">
<rect width="32" height="32" fill="white"/>
</clipPath>
</defs>
</svg>
