<svg width="32" height="32" viewBox="0 0 32 32" fill="none" xmlns="http://www.w3.org/2000/svg">
<path d="M5.33341 26.6667C4.60008 26.6667 3.9723 26.4056 3.45008 25.8834C2.92786 25.3612 2.66675 24.7334 2.66675 24V8.00004C2.66675 7.26671 2.92786 6.63893 3.45008 6.11671C3.9723 5.59449 4.60008 5.33337 5.33341 5.33337H26.6667C27.4001 5.33337 28.0279 5.59449 28.5501 6.11671C29.0723 6.63893 29.3334 7.26671 29.3334 8.00004V24C29.3334 24.7334 29.0723 25.3612 28.5501 25.8834C28.0279 26.4056 27.4001 26.6667 26.6667 26.6667H5.33341ZM16.0001 17.3334L5.33341 10.6667V24H26.6667V10.6667L16.0001 17.3334ZM16.0001 14.6667L26.6667 8.00004H5.33341L16.0001 14.6667ZM5.33341 10.6667V8.00004V24V10.6667Z" fill="#F57F2A"/>
</svg>
