<svg width="46" height="46" viewBox="0 0 46 46" fill="none" xmlns="http://www.w3.org/2000/svg">
<g clip-path="url(#clip0_2485_148)">
<path d="M27.4168 36.6941L24.5884 39.5225C24.3269 39.7862 24.0132 39.9923 23.6674 40.1277C23.3216 40.2631 22.9514 40.3247 22.5804 40.3088C22.2094 40.2928 21.8458 40.1995 21.513 40.0349C21.1801 39.8703 20.8853 39.638 20.6474 39.3528C18.0615 36.1364 16.2661 32.3582 15.4054 28.3219C14.575 24.5964 14.575 20.7338 15.4054 17.0082C16.2716 12.9553 18.0804 9.16334 20.6851 5.93965C20.9223 5.65538 21.2161 5.42359 21.5477 5.25906C21.8793 5.09453 22.2416 5.00086 22.6114 4.98401C22.9813 4.96716 23.3506 5.0275 23.6958 5.16119C24.041 5.29488 24.3546 5.49899 24.6167 5.76052L27.4451 8.58895C27.9071 9.042 28.1887 9.6476 28.2373 10.2929C28.2858 10.9382 28.0981 11.5791 27.7091 12.0962C26.9233 13.1207 26.2559 14.2309 25.7197 15.4055C25.5091 15.8698 25.1699 16.264 24.7421 16.5413C24.3143 16.8187 23.816 16.9677 23.3062 16.9705H20.9114C19.8932 20.673 19.8932 24.5817 20.9114 28.2842H23.3062C23.816 28.2871 24.3143 28.436 24.7421 28.7134C25.1699 28.9908 25.5091 29.385 25.7197 29.8493C26.2559 31.0239 26.9233 32.134 27.7091 33.1586C28.1024 33.6811 28.29 34.3301 28.2361 34.982C28.1823 35.6338 27.8907 36.2432 27.4168 36.6941Z" stroke="#F57F2A" stroke-width="4" stroke-linecap="round" stroke-linejoin="round"/>
</g>
<defs>
<clipPath id="clip0_2485_148">
<rect width="32" height="32" fill="white" transform="translate(22.6274) rotate(45)"/>
</clipPath>
</defs>
</svg>
